<svg width="103" height="101" viewBox="0 0 103 101" fill="none" xmlns="http://www.w3.org/2000/svg">
<path d="M0 0H98V98H44.3534L0 51.5345V0Z"/>
<path d="M81 0L98 0V16L81 0Z" fill="#252525"/>
<line x1="39.5371" y1="100.646" x2="102.344" y2="37.8397" stroke="black"/>
<line x1="64.998" y1="92.1591" x2="96.4014" y2="60.7558" stroke="black"/>
<path d="M34.3176 67V62.5L46.5176 50.05C49.4842 47.0833 50.9676 44.5167 50.9676 42.35C50.9676 40.65 50.4509 39.3333 49.4176 38.4C48.4176 37.4333 47.1342 36.95 45.5676 36.95C42.6342 36.95 40.4676 38.4 39.0676 41.3L34.2176 38.45C35.3176 36.1167 36.8676 34.35 38.8676 33.15C40.8676 31.95 43.0842 31.35 45.5176 31.35C48.5842 31.35 51.2176 32.3167 53.4176 34.25C55.6176 36.1833 56.7176 38.8167 56.7176 42.15C56.7176 45.7167 54.7342 49.5167 50.7676 53.55L42.8676 61.45H57.3676V67H34.3176Z" fill="#252525"/>
</svg>
