<svg width="103" height="101" viewBox="0 0 103 101" fill="none" xmlns="http://www.w3.org/2000/svg">
<path d="M0 0H98V98H44.3534L0 51.5345V0Z" />
<path d="M81 0L98 0V16L81 0Z" fill="#252525"/>
<line x1="39.5371" y1="100.646" x2="102.344" y2="37.8397" stroke="black"/>
<line x1="64.998" y1="92.1591" x2="96.4014" y2="60.7558" stroke="black"/>
<path d="M49.199 46.3C51.7324 46.9 53.7824 48.0833 55.349 49.85C56.949 51.5833 57.749 53.7667 57.749 56.4C57.749 59.9 56.5657 62.65 54.199 64.65C51.8324 66.65 48.9324 67.65 45.499 67.65C42.8324 67.65 40.4324 67.0333 38.299 65.8C36.199 64.5667 34.6824 62.7667 33.749 60.4L38.649 57.55C39.6824 60.55 41.9657 62.05 45.499 62.05C47.499 62.05 49.0824 61.55 50.249 60.55C51.4157 59.5167 51.999 58.1333 51.999 56.4C51.999 54.6667 51.4157 53.3 50.249 52.3C49.0824 51.3 47.499 50.8 45.499 50.8H44.199L41.899 47.35L49.449 37.4H34.799V32H56.299V36.9L49.199 46.3Z" fill="#252525"/>
</svg>
