<svg width="18" height="18" viewBox="0 0 18 18" fill="none" xmlns="http://www.w3.org/2000/svg">
<path d="M11.6632 9.74707L10.1556 11.2597C9.5443 11.8732 8.46866 11.8864 7.84411 11.2597L6.3365 9.74707L0.921875 15.1793C1.12343 15.2725 1.34565 15.3281 1.5819 15.3281H16.4178C16.6541 15.3281 16.8762 15.2725 17.0777 15.1793L11.6632 9.74707Z" fill="black"/>
<path d="M16.4178 2.67188H1.58183C1.34558 2.67188 1.12336 2.72749 0.921875 2.82069L6.70779 8.6258C6.70817 8.62618 6.70863 8.62625 6.70902 8.62664C6.7094 8.62703 6.70947 8.62755 6.70947 8.62755L8.59079 10.5151C8.79062 10.7149 9.20905 10.7149 9.40887 10.5151L11.2898 8.62787C11.2898 8.62787 11.2903 8.62703 11.2906 8.62664C11.2906 8.62664 11.2915 8.62618 11.2919 8.6258L17.0776 2.82066C16.8762 2.72742 16.654 2.67188 16.4178 2.67188Z" fill="black"/>
<path d="M0.168258 3.55811C0.0639844 3.76897 0 4.00304 0 4.25378V13.746C0 13.9967 0.0639141 14.2308 0.168223 14.4416L5.59223 9.00005L0.168258 3.55811Z" fill="black"/>
<path d="M17.8302 3.55811L12.4062 9.00012L17.8302 14.4418C17.9345 14.2309 17.9984 13.9968 17.9984 13.746V4.25385C17.9984 4.00304 17.9345 3.76897 17.8302 3.55811Z" fill="black"/>
</svg>
